<?xml version="1.0" encoding="UTF-8" standalone="no"?>
<!-- Created with Inkscape (http://www.inkscape.org/) -->

<svg
   version="1.1"
   id="svg137531"
   width="100"
   height="100"
   viewBox="0 0 800 800"
   sodipodi:docname="round-lollipop-pdv.svg"
   inkscape:version="1.2 (dc2aedaf03, 2022-05-15)"
   xmlns:inkscape="http://www.inkscape.org/namespaces/inkscape"
   xmlns:sodipodi="http://sodipodi.sourceforge.net/DTD/sodipodi-0.dtd"
   xmlns="http://www.w3.org/2000/svg"
   xmlns:svg="http://www.w3.org/2000/svg">
  <defs
     id="defs137535">
    <clipPath
       clipPathUnits="userSpaceOnUse"
       id="clipPath137547">
      <path
         d="M 0,600 H 600 V 0 H 0 Z"
         id="path137545" />
    </clipPath>
  </defs>
  <sodipodi:namedview
     id="namedview137533"
     pagecolor="#ffffff"
     bordercolor="#000000"
     borderopacity="0.25"
     inkscape:showpageshadow="2"
     inkscape:pageopacity="0.0"
     inkscape:pagecheckerboard="0"
     inkscape:deskcolor="#d1d1d1"
     showgrid="false"
     inkscape:zoom="1.04625"
     inkscape:cx="400"
     inkscape:cy="400.4779"
     inkscape:window-width="1920"
     inkscape:window-height="1017"
     inkscape:window-x="-8"
     inkscape:window-y="-8"
     inkscape:window-maximized="1"
     inkscape:current-layer="g137539">
    <inkscape:page
       x="0"
       y="0"
       id="page137537"
       width="800"
       height="800" />
  </sodipodi:namedview>
  <g
     id="g137539"
     inkscape:groupmode="layer"
     inkscape:label="Page 1"
     transform="matrix(1.3333333,0,0,-1.3333333,0,800)">
    <g
       id="g137541">
      <g
         id="g137543"
         clip-path="url(#clipPath137547)">
        <g
           id="g137549"
           transform="translate(292.7168,81.1816)">
          <path
             d="m 0,0 c 74.295,0 134.892,17.873 134.892,39.788 0,21.915 -60.597,39.79 -134.892,39.79 -74.297,0 -134.894,-17.875 -134.894,-39.79 C -134.894,17.873 -74.297,0 0,0"
             style="fill:#e6e6e6;fill-opacity:1;fill-rule:evenodd;stroke:none"
             id="path137551" />
        </g>
        <g
           id="g137553"
           transform="translate(186.334,354.1768)">
          <path
             d="m 0,0 v 0 c 5.054,2.269 11.047,-0.006 13.317,-5.062 l 98.913,-220.145 c 2.271,-5.054 -0.006,-11.046 -5.06,-13.318 h -0.002 c -5.054,-2.27 -11.045,0.006 -13.316,5.061 L -5.062,-13.319 C -7.332,-8.265 -5.056,-2.272 0,0"
             style="fill:#a7bf1c;fill-opacity:1;fill-rule:evenodd;stroke:none"
             id="path137555" />
        </g>
        <g
           id="g137557"
           transform="translate(186.334,354.1768)">
          <path
             d="m 0,0 v 0 c 5.054,2.269 11.047,-0.008 13.315,-5.062 l 16.443,-36.591 c -1.936,-1.067 -3.927,-2.065 -5.978,-2.987 -4.186,-1.882 -8.449,-3.374 -12.745,-4.503 L -5.062,-13.319 C -7.332,-8.265 -5.056,-2.272 0,0"
             style="fill:#94ab13;fill-opacity:1;fill-rule:evenodd;stroke:none"
             id="path137559" />
        </g>
        <g
           id="g137561"
           transform="translate(208.1494,299.3926)">
          <path
             d="m 0,0 v 0.001 c 2.261,1.016 4.94,-0.003 5.955,-2.263 l 73.666,-163.956 c 1.017,-2.26 -0.003,-4.939 -2.262,-5.955 h -10e-4 c -2.26,-1.016 -4.938,0.002 -5.954,2.262 L -2.263,-5.955 C -3.277,-3.694 -2.26,-1.015 0,0"
             style="fill:#cfe35d;fill-opacity:1;fill-rule:evenodd;stroke:none"
             id="path137563" />
        </g>
        <g
           id="g137565"
           transform="translate(237.6309,435.4785)">
          <path
             d="m 0,0 c 2.688,-3.933 5.065,-8.158 7.087,-12.654 18.423,-41.003 0.118,-89.176 -40.885,-107.597 -41.002,-18.425 -89.176,-0.118 -107.6,40.884 -2.019,4.495 -3.598,9.079 -4.753,13.7 z"
             style="fill:#f5ac00;fill-opacity:1;fill-rule:evenodd;stroke:none"
             id="path137567" />
        </g>
        <g
           id="g137569"
           transform="translate(239.0654,433.3037)">
          <path
             d="m 0,0 c 2.106,-3.303 3.999,-6.798 5.652,-10.48 18.423,-41.002 0.118,-89.175 -40.884,-107.596 -7.354,-3.305 -14.938,-5.422 -22.54,-6.445 27.092,7.541 54.904,29.032 58.383,56.972 -38.252,-31.141 -86.628,-45.547 -123.537,-36.906 -8.23,7.369 -15.088,16.538 -19.906,27.263 -2.02,4.495 -3.599,9.079 -4.754,13.7 l 100.32,45.074 z"
             style="fill:#e8a200;fill-opacity:1;fill-rule:evenodd;stroke:none"
             id="path137571" />
        </g>
        <g
           id="g137573"
           transform="translate(162.6885,406.8018)">
          <path
             d="M 0,0 C 14.406,6.474 28.597,11.029 41.432,13.619 L 81.215,31.495 93.391,4.396 C 101.147,-12.867 71.91,-42.822 28.086,-62.512 -15.735,-82.203 -57.55,-84.171 -65.306,-66.907 l -12.175,27.098 39.785,17.875 C -27.237,-14.057 -14.409,-6.473 0,0"
             style="fill:#ffbb00;fill-opacity:1;fill-rule:evenodd;stroke:none"
             id="path137575" />
        </g>
        <g
           id="g137577"
           transform="translate(235.1836,438.8599)">
          <path
             d="m 0,0 c 1.053,-0.99 1.879,-2.116 2.449,-3.381 6.36,-14.159 -21.201,-40.335 -61.56,-58.469 -40.358,-18.133 -78.232,-21.357 -84.593,-7.198 -0.569,1.265 -0.863,2.631 -0.904,4.074 -7.109,36.296 11.357,74.013 46.544,89.824 C -62.878,40.658 -22.414,29.419 0,0"
             style="fill:#ffd042;fill-opacity:1;fill-rule:evenodd;stroke:none"
             id="path137579" />
        </g>
        <g
           id="g137581"
           transform="translate(235.1836,438.8599)">
          <path
             d="m 0,0 c 1.053,-0.99 1.879,-2.116 2.449,-3.381 6.36,-14.159 -21.201,-40.335 -61.56,-58.469 -10.287,-4.622 -20.412,-8.274 -29.896,-10.918 34.062,12.897 110.599,44.778 73.802,87.993 C -9.554,10.902 -4.423,5.807 0,0"
             style="fill:#ffc31f;fill-opacity:1;fill-rule:evenodd;stroke:none"
             id="path137583" />
        </g>
        <g
           id="g137585"
           transform="translate(225.7383,449.2417)">
          <path
             d="m 0,0 c 9.094,-1.514 15.558,-5.139 18.165,-10.945 7.758,-17.263 -21.481,-47.219 -65.305,-66.907 -43.822,-19.691 -85.636,-21.66 -93.391,-4.397 -2.609,5.806 -1.029,13.047 3.879,20.85 0.091,-4.643 0.579,-9.311 1.489,-13.957 0.041,-1.443 0.335,-2.809 0.904,-4.074 6.361,-14.158 44.235,-10.935 84.593,7.198 40.359,18.134 67.92,44.311 61.561,58.469 -0.571,1.265 -1.397,2.391 -2.45,3.381 C 6.576,-6.616 3.41,-3.151 0,0"
             style="fill:#ffda69;fill-opacity:1;fill-rule:evenodd;stroke:none"
             id="path137587" />
        </g>
        <g
           id="g137589"
           transform="translate(241.3584,419.7041)">
          <path
             d="m 0,0 c -8.805,-15.916 -32.242,-34.603 -62.76,-48.315 -32.337,-14.53 -63.575,-19.408 -80.846,-14.031 C -104.406,-70.604 -26.715,-36.342 0,0"
             style="fill:#ffe8a1;fill-opacity:1;fill-rule:evenodd;stroke:none"
             id="path137591" />
        </g>
        <g
           id="g137593"
           transform="translate(128.7681,455.5186)">
          <path
             d="m 0,0 c 21.881,9.83 43.413,1.179 48.095,-19.324 4.681,-20.503 -9.261,-45.093 -31.14,-54.922 -21.88,-9.833 -43.413,-1.181 -48.096,19.322 C -35.822,-34.421 -21.879,-9.833 0,0"
             style="fill:#ffda69;fill-opacity:1;fill-rule:evenodd;stroke:none"
             id="path137595" />
        </g>
        <g
           id="g137597"
           transform="translate(120.8691,447.688)">
          <path
             d="m 0,0 c 13.592,6.107 26.967,0.732 29.875,-12.003 2.908,-12.735 -5.753,-28.01 -19.344,-34.117 -13.59,-6.106 -26.965,-0.731 -29.874,12.003 C -22.252,-21.38 -13.591,-6.105 0,0"
             style="fill:#ffe494;fill-opacity:1;fill-rule:evenodd;stroke:none"
             id="path137599" />
        </g>
        <g
           id="g137601"
           transform="translate(147.2456,438.2524)">
          <path
             d="M 0,0 C -2.47,-1.111 -3.628,-3.888 -2.588,-6.204 -1.547,-8.522 1.3,-9.501 3.77,-8.391 6.24,-7.28 7.398,-4.502 6.358,-2.186 5.316,0.13 2.47,1.109 0,0 m -7.804,12.471 c 3.987,1.791 8.339,0.754 9.719,-2.319 1.379,-3.073 -0.733,-7.014 -4.72,-8.806 -3.987,-1.792 -8.34,-0.753 -9.719,2.319 -1.38,3.071 0.733,7.014 4.72,8.806"
             style="fill:#fff3cf;fill-opacity:1;fill-rule:evenodd;stroke:none"
             id="path137603" />
        </g>
        <g
           id="g137605"
           transform="translate(404.4395,399.3892)">
          <path
             d="m 0,0 v 0 c 5.401,-1.241 8.803,-6.673 7.563,-12.072 l -54.039,-235.22 c -1.239,-5.399 -6.672,-8.803 -12.074,-7.562 -5.4,1.241 -8.803,6.674 -7.561,12.073 L -12.073,-7.562 C -10.833,-2.161 -5.4,1.241 0,0"
             style="fill:#cc3300;fill-opacity:1;fill-rule:evenodd;stroke:none"
             id="path137607" />
        </g>
        <g
           id="g137609"
           transform="translate(404.4395,399.3892)">
          <path
             d="M 0,0 V 0 C 5.399,-1.24 8.803,-6.673 7.563,-12.072 L -1.42,-51.171 c -2.185,0.32 -4.377,0.726 -6.569,1.228 -4.473,1.028 -8.771,2.411 -12.878,4.104 l 8.794,38.277 C -10.833,-2.161 -5.4,1.241 0,0"
             style="fill:#bf3000;fill-opacity:1;fill-rule:evenodd;stroke:none"
             id="path137611" />
        </g>
        <g
           id="g137613"
           transform="translate(388.7617,342.5439)">
          <path
             d="m 0,0 v 0 c 2.415,-0.554 3.936,-2.982 3.381,-5.397 l -40.244,-175.182 c -0.555,-2.415 -2.985,-3.935 -5.399,-3.381 h -10e-4 c -2.414,0.556 -3.935,2.983 -3.382,5.397 L -5.398,-3.38 C -4.844,-0.966 -2.415,0.556 0,0"
             style="fill:#e83a00;fill-opacity:1;fill-rule:evenodd;stroke:none"
             id="path137615" />
        </g>
        <g
           id="g137617"
           transform="translate(494.416,433.2402)">
          <path
             d="m 0,0 c -0.231,-4.758 -0.885,-9.559 -1.988,-14.366 -10.065,-43.81 -53.74,-71.165 -97.549,-61.101 -43.811,10.065 -71.167,53.738 -61.103,97.549 1.106,4.806 2.614,9.412 4.481,13.793 z"
             style="fill:#568bf5;fill-opacity:1;fill-rule:evenodd;stroke:none"
             id="path137619" />
        </g>
        <g
           id="g137621"
           transform="translate(494.2471,430.6416)">
          <path
             d="m 0,0 c -0.316,-3.906 -0.917,-7.835 -1.819,-11.768 -10.065,-43.809 -53.74,-71.165 -97.549,-61.1 -7.858,1.804 -15.182,4.696 -21.86,8.471 26.153,-10.343 61.296,-10 80.937,10.174 -49.295,-1.735 -96.559,15.986 -120.768,45.154 -2.112,10.842 -2.044,22.291 0.588,33.75 1.106,4.805 2.613,9.411 4.481,13.793 L -48.802,13.848 Z"
             style="fill:#467deb;fill-opacity:1;fill-rule:evenodd;stroke:none"
             id="path137623" />
        </g>
        <g
           id="g137625"
           transform="translate(417.3564,455.6191)">
          <path
             d="m 0,0 c 15.395,-3.537 29.458,-8.471 41.252,-14.152 l 42.51,-9.767 -6.653,-28.955 c -4.238,-18.443 -45.63,-24.674 -92.453,-13.918 -46.823,10.757 -81.346,34.428 -77.108,52.874 l 6.65,28.954 42.51,-9.765 C -30.199,5.235 -15.392,3.537 0,0"
             style="fill:#6699ff;fill-opacity:1;fill-rule:evenodd;stroke:none"
             id="path137627" />
        </g>
        <g
           id="g137629"
           transform="translate(494.5059,437.4136)">
          <path
             d="m 0,0 c 0.242,-1.424 0.221,-2.822 -0.09,-4.173 -3.475,-15.127 -41.249,-19.36 -84.372,-9.453 -43.122,9.906 -75.262,30.201 -71.787,45.328 0.31,1.353 0.901,2.617 1.74,3.793 16.241,33.228 53.733,52.153 91.328,43.514 C -25.584,70.373 -0.11,36.984 0,0"
             style="fill:#78a5ff;fill-opacity:1;fill-rule:evenodd;stroke:none"
             id="path137631" />
        </g>
        <g
           id="g137633"
           transform="translate(494.5059,437.4136)">
          <path
             d="m 0,0 c 0.242,-1.424 0.221,-2.822 -0.09,-4.173 -3.475,-15.127 -41.249,-19.36 -84.372,-9.453 -10.992,2.526 -21.27,5.727 -30.427,9.345 C -79.945,-14.563 0.317,-35.348 -2.933,21.317 -1.035,14.459 -0.022,7.3 0,0"
             style="fill:#6699ff;fill-opacity:1;fill-rule:evenodd;stroke:none"
             id="path137635" />
        </g>
        <g
           id="g137637"
           transform="translate(493.2412,451.3926)">
          <path
             d="m 0,0 c 6.338,-6.695 9.301,-13.489 7.877,-19.693 -4.238,-18.444 -45.631,-24.675 -92.454,-13.919 -46.822,10.757 -81.346,34.429 -77.109,52.874 1.425,6.203 7.056,11.022 15.681,14.28 -2.731,-3.756 -5.16,-7.772 -7.239,-12.026 -0.839,-1.176 -1.43,-2.44 -1.74,-3.793 -3.475,-15.127 28.665,-35.422 71.787,-45.328 43.123,-9.907 80.897,-5.674 84.372,9.453 0.31,1.351 0.332,2.749 0.09,4.173 C 1.252,-9.246 0.818,-4.572 0,0"
             style="fill:#8ab1ff;fill-opacity:1;fill-rule:evenodd;stroke:none"
             id="path137639" />
        </g>
        <g
           id="g137641"
           transform="translate(487.8662,418.4131)">
          <path
             d="m 0,0 c -16.627,-7.372 -46.595,-8.122 -79.202,-0.632 -34.551,7.939 -62.4,22.907 -72.924,37.619 C -125.857,6.739 -43.238,-12.843 0,0"
             style="fill:#c9dbff;fill-opacity:1;fill-rule:evenodd;stroke:none"
             id="path137643" />
        </g>
        <g
           id="g137645"
           transform="translate(419.7246,514.9336)">
          <path
             d="M 0,0 C 23.378,-5.371 35.321,-25.267 26.677,-44.439 18.033,-63.61 -7.927,-74.797 -31.305,-69.428 -54.684,-64.057 -66.627,-44.161 -57.982,-24.989 -49.339,-5.817 -23.379,5.372 0,0"
             style="fill:#8ab1ff;fill-opacity:1;fill-rule:evenodd;stroke:none"
             id="path137647" />
        </g>
        <g
           id="g137649"
           transform="translate(408.7002,513.4595)">
          <path
             d="m 0,0 c 14.521,-3.335 21.939,-15.694 16.571,-27.604 -5.369,-11.908 -21.495,-18.858 -36.016,-15.521 -14.522,3.337 -21.941,15.694 -16.573,27.602 C -30.647,-3.613 -14.522,3.335 0,0"
             style="fill:#a6c4ff;fill-opacity:1;fill-rule:evenodd;stroke:none"
             id="path137651" />
        </g>
        <g
           id="g137653"
           transform="translate(424.0322,490.0156)">
          <path
             d="m 0,0 c 2.639,-0.607 4.318,-3.105 3.749,-5.581 -0.57,-2.476 -3.17,-3.992 -5.81,-3.385 -2.638,0.606 -4.318,3.104 -3.749,5.58 C -5.241,-0.91 -2.64,0.605 0,0 M 1.306,14.653 C 5.566,13.673 8.408,10.22 7.653,6.937 6.9,3.655 2.835,1.787 -1.424,2.765 c -4.261,0.978 -7.102,4.434 -6.349,7.716 0.755,3.282 4.819,5.151 9.079,4.172"
             style="fill:#c9dbff;fill-opacity:1;fill-rule:evenodd;stroke:none"
             id="path137655" />
        </g>
      </g>
    </g>
  </g>
</svg>
